<svg width="124" height="150" viewBox="0 0 124 150" fill="none" xmlns="http://www.w3.org/2000/svg">
<path d="M123.659 48H106.045C105.004 42.9337 103.181 38.483 100.577 34.6477C98.0199 30.8125 94.8949 27.5928 91.2017 24.9886C87.5559 22.3371 83.5076 20.3485 79.0568 19.0227C74.6061 17.697 69.9659 17.0341 65.1364 17.0341C56.3295 17.0341 48.3513 19.2595 41.2017 23.7102C34.0994 28.161 28.4413 34.7188 24.2273 43.3835C20.0606 52.0483 17.9773 62.678 17.9773 75.2727C17.9773 87.8674 20.0606 98.4972 24.2273 107.162C28.4413 115.827 34.0994 122.384 41.2017 126.835C48.3513 131.286 56.3295 133.511 65.1364 133.511C69.9659 133.511 74.6061 132.848 79.0568 131.523C83.5076 130.197 87.5559 128.232 91.2017 125.628C94.8949 122.976 98.0199 119.733 100.577 115.898C103.181 112.015 105.004 107.564 106.045 102.545H123.659C122.333 109.979 119.919 116.632 116.415 122.503C112.911 128.374 108.555 133.369 103.347 137.489C98.1383 141.561 92.2907 144.662 85.804 146.793C79.3646 148.923 72.4754 149.989 65.1364 149.989C52.7311 149.989 41.6989 146.958 32.0398 140.898C22.3807 134.837 14.7813 126.22 9.24148 115.045C3.70171 103.871 0.931819 90.6136 0.931819 75.2727C0.931819 59.9318 3.70171 46.6742 9.24148 35.5C14.7813 24.3258 22.3807 15.7083 32.0398 9.64773C41.6989 3.58712 52.7311 0.556813 65.1364 0.556813C72.4754 0.556813 79.3646 1.62215 85.804 3.75284C92.2907 5.88352 98.1383 9.00852 103.347 13.1278C108.555 17.1998 112.911 22.1714 116.415 28.0426C119.919 33.8665 122.333 40.5189 123.659 48Z" fill="url(#paint0_linear_767_50)"/>
<defs>
<linearGradient id="paint0_linear_767_50" x1="67" y1="4" x2="36" y2="138.5" gradientUnits="userSpaceOnUse">
<stop stop-color="#0007FF"/>
<stop offset="1" stop-color="#FFA600"/>
</linearGradient>
</defs>
</svg>
