<svg width="618" height="279" viewBox="0 0 618 279" fill="none" xmlns="http://www.w3.org/2000/svg">
<path d="M77.4837 136.33V122.054C85.675 122.054 91.3568 120.42 94.5291 117.153C97.7015 113.886 99.2876 108.607 99.2876 101.315V85.6193C99.2876 76.8598 100.495 69.8523 102.91 64.5966C105.372 59.2936 108.781 55.2926 113.137 52.5938C117.54 49.8949 122.749 48.0956 128.762 47.196C134.775 46.2964 141.357 45.8466 148.506 45.8466V68.4318C142.919 68.4318 138.658 69.1657 135.722 70.6335C132.834 72.054 130.869 74.2794 129.827 77.3097C128.786 80.2926 128.265 84.0805 128.265 88.6733V109.412C128.265 113.01 127.602 116.443 126.276 119.71C124.951 122.93 122.488 125.795 118.89 128.304C115.291 130.766 110.154 132.731 103.478 134.199C96.8018 135.619 88.1371 136.33 77.4837 136.33ZM148.506 225.605C141.357 225.605 134.775 225.155 128.762 224.256C122.749 223.356 117.54 221.557 113.137 218.858C108.781 216.159 105.372 212.158 102.91 206.855C100.495 201.599 99.2876 194.592 99.2876 185.832V170.065C99.2876 162.774 97.7015 157.494 94.5291 154.227C91.3568 150.96 85.675 149.327 77.4837 149.327V135.051C88.1371 135.051 96.8018 135.785 103.478 137.253C110.154 138.673 115.291 140.638 118.89 143.148C122.488 145.61 124.951 148.474 126.276 151.741C127.602 154.961 128.265 158.394 128.265 162.04V182.778C128.265 187.324 128.786 191.088 129.827 194.071C130.869 197.101 132.834 199.327 135.722 200.747C138.658 202.215 142.919 202.949 148.506 202.949V225.605ZM77.4837 149.327V122.054H102.981V149.327H77.4837ZM213.528 196.131C202.353 196.131 192.742 193.763 184.692 189.028C176.691 184.246 170.535 177.617 166.227 169.142C161.965 160.667 159.835 150.913 159.835 139.881C159.835 128.706 161.989 118.905 166.298 110.477C170.654 102.002 176.833 95.3968 184.835 90.6619C192.836 85.8797 202.353 83.4886 213.386 83.4886C222.903 83.4886 231.236 85.2169 238.386 88.6733C245.535 92.1297 251.193 96.983 255.36 103.233C259.527 109.483 261.823 116.822 262.249 125.25H233.698C232.893 119.805 230.763 115.425 227.306 112.111C223.897 108.749 219.423 107.068 213.883 107.068C209.195 107.068 205.1 108.347 201.596 110.903C198.139 113.413 195.441 117.082 193.499 121.912C191.558 126.741 190.587 132.589 190.587 139.455C190.587 146.415 191.534 152.333 193.428 157.21C195.37 162.087 198.092 165.804 201.596 168.361C205.1 170.918 209.195 172.196 213.883 172.196C217.339 172.196 220.441 171.486 223.187 170.065C225.98 168.645 228.277 166.585 230.076 163.886C231.923 161.14 233.13 157.849 233.698 154.014H262.249C261.776 162.348 259.503 169.687 255.431 176.031C251.406 182.329 245.843 187.253 238.741 190.804C231.638 194.355 223.234 196.131 213.528 196.131Z" fill="url(#paint0_linear_808_5)"/>
<path d="M344.973 41.7273L298.098 215.875H272.033L318.908 41.7273H344.973Z" fill="url(#paint1_linear_808_5)"/>
<path d="M408.84 196.131C397.666 196.131 388.054 193.763 380.005 189.028C372.003 184.246 365.848 177.617 361.539 169.142C357.278 160.667 355.147 150.913 355.147 139.881C355.147 128.706 357.301 118.905 361.61 110.477C365.966 102.002 372.145 95.3968 380.147 90.6619C388.149 85.8797 397.666 83.4886 408.698 83.4886C418.215 83.4886 426.549 85.2169 433.698 88.6733C440.848 92.1297 446.506 96.983 450.673 103.233C454.839 109.483 457.136 116.822 457.562 125.25H429.011C428.206 119.805 426.075 115.425 422.619 112.111C419.21 108.749 414.735 107.068 409.195 107.068C404.508 107.068 400.412 108.347 396.908 110.903C393.452 113.413 390.753 117.082 388.812 121.912C386.871 126.741 385.9 132.589 385.9 139.455C385.9 146.415 386.847 152.333 388.741 157.21C390.682 162.087 393.405 165.804 396.908 168.361C400.412 170.918 404.508 172.196 409.195 172.196C412.652 172.196 415.753 171.486 418.499 170.065C421.293 168.645 423.589 166.585 425.388 163.886C427.235 161.14 428.442 157.849 429.011 154.014H457.562C457.088 162.348 454.816 169.687 450.744 176.031C446.719 182.329 441.156 187.253 434.053 190.804C426.951 194.355 418.547 196.131 408.84 196.131ZM540.499 135.051V149.327C532.355 149.327 526.673 150.96 523.453 154.227C520.281 157.494 518.695 162.774 518.695 170.065V185.832C518.695 194.592 517.464 201.599 515.001 206.855C512.587 212.158 509.178 216.159 504.774 218.858C500.418 221.557 495.233 223.356 489.22 224.256C483.254 225.155 476.673 225.605 469.476 225.605V202.949C475.063 202.949 479.301 202.215 482.189 200.747C485.125 199.327 487.113 197.101 488.155 194.071C489.196 191.088 489.717 187.324 489.717 182.778V162.04C489.717 158.394 490.38 154.961 491.706 151.741C493.032 148.474 495.494 145.61 499.092 143.148C502.691 140.638 507.828 138.673 514.504 137.253C521.18 135.785 529.845 135.051 540.499 135.051ZM469.476 45.8466C476.673 45.8466 483.254 46.2964 489.22 47.196C495.233 48.0956 500.418 49.8949 504.774 52.5938C509.178 55.2926 512.587 59.2936 515.001 64.5966C517.464 69.8523 518.695 76.8598 518.695 85.6193V101.315C518.695 108.607 520.281 113.886 523.453 117.153C526.673 120.42 532.355 122.054 540.499 122.054V136.33C529.845 136.33 521.18 135.619 514.504 134.199C507.828 132.731 502.691 130.766 499.092 128.304C495.494 125.795 493.032 122.93 491.706 119.71C490.38 116.443 489.717 113.01 489.717 109.412V88.6733C489.717 84.0805 489.196 80.2926 488.155 77.3097C487.113 74.2794 485.125 72.054 482.189 70.6335C479.301 69.1657 475.063 68.4318 469.476 68.4318V45.8466ZM540.499 122.054V149.327H515.001V122.054H540.499Z" fill="white"/>
<defs>
<linearGradient id="paint0_linear_808_5" x1="309" y1="0" x2="309" y2="279" gradientUnits="userSpaceOnUse">
<stop offset="1" stop-color="white"/>
</linearGradient>
<linearGradient id="paint1_linear_808_5" x1="254.595" y1="47.2686" x2="192.53" y2="252.571" gradientUnits="userSpaceOnUse">
<stop offset="1" stop-color="white"/>
</linearGradient>
</defs>
</svg>
