<svg width="302" height="120" viewBox="0 0 302 120" fill="none" xmlns="http://www.w3.org/2000/svg">
<path d="M0.402344 61.4434V52.1819C5.73067 52.1819 9.42659 51.1218 11.4901 49.0024C13.5537 46.8829 14.5855 43.4582 14.5855 38.7276V28.545C14.5855 22.8624 15.3709 18.3163 16.9418 14.9067C18.5433 11.4664 20.7608 8.87073 23.5943 7.11989C26.4584 5.36899 29.8468 4.2017 33.7581 3.61809C37.6695 3.03448 41.951 2.74268 46.6013 2.74268V17.3947C42.967 17.3947 40.1953 17.8708 38.2855 18.8231C36.4069 19.7446 35.1287 21.1883 34.4509 23.1542C33.7737 25.0894 33.4348 27.5467 33.4348 30.5263V43.9804C33.4348 46.3146 33.0036 48.5418 32.141 50.6612C31.2791 52.7502 29.677 54.6088 27.3365 56.2365C24.9954 57.8338 21.6539 59.1085 17.3113 60.0609C12.9685 60.9821 7.33223 61.4434 0.402344 61.4434ZM46.6013 119.36C41.951 119.36 37.6695 119.068 33.7581 118.485C29.8468 117.901 26.4584 116.734 23.5943 114.983C20.7608 113.232 18.5433 110.636 16.9418 107.196C15.3709 103.786 14.5855 99.2406 14.5855 93.5576V83.3288C14.5855 78.5988 13.5537 75.1734 11.4901 73.054C9.42659 70.9345 5.73067 69.8751 0.402344 69.8751V60.6136C7.33223 60.6136 12.9685 61.0898 17.3113 62.0422C21.6539 62.9634 24.9954 64.2382 27.3365 65.8665C29.677 67.4637 31.2791 69.3217 32.141 71.4412C33.0036 73.5302 33.4348 75.7573 33.4348 78.1226V91.5763C33.4348 94.5255 33.7737 96.9674 34.4509 98.9026C35.1287 100.868 36.4069 102.312 38.2855 103.234C40.1953 104.186 42.967 104.662 46.6013 104.662V119.36ZM0.402344 69.8751V52.1819H16.988V69.8751H0.402344ZM88.8972 100.239C81.628 100.239 75.3762 98.7028 70.1398 95.631C64.9352 92.5287 60.9309 88.2281 58.1286 82.73C55.3562 77.2319 53.9707 70.904 53.9707 63.7471C53.9707 56.4973 55.3718 50.139 58.1747 44.6714C61.0083 39.1732 65.0276 34.8881 70.2328 31.8164C75.4373 28.714 81.628 27.1628 88.8048 27.1628C94.9955 27.1628 100.416 28.284 105.067 30.5263C109.717 32.7686 113.398 35.9172 116.108 39.9718C118.819 44.0265 120.312 48.7876 120.589 54.2553H102.017C101.494 50.7229 100.108 47.8814 97.8596 45.7314C95.6421 43.5503 92.7318 42.4598 89.1281 42.4598C86.0786 42.4598 83.4149 43.2895 81.1356 44.9477C78.8868 46.5761 77.1318 48.9563 75.8686 52.0898C74.606 55.2226 73.9744 59.0164 73.9744 63.4707C73.9744 67.986 74.5904 71.8253 75.8224 74.9892C77.0857 78.1531 78.8563 80.5645 81.1356 82.2233C83.4149 83.8822 86.0786 84.7113 89.1281 84.7113C91.3762 84.7113 93.394 84.2507 95.1802 83.3288C96.997 82.4076 98.4912 81.0712 99.6614 79.3202C100.863 77.5387 101.648 75.4037 102.017 72.9158H120.589C120.282 78.3224 118.803 83.0836 116.154 87.1992C113.536 91.285 109.918 94.4794 105.298 96.7831C100.677 99.0868 95.2108 100.239 88.8972 100.239Z" fill="white"/>
<path d="M174.4 0.0703125L143.908 113.048H126.953L157.445 0.0703125H174.4Z" fill="white"/>
<path d="M215.944 100.239C208.676 100.239 202.423 98.7028 197.187 95.631C191.982 92.5287 187.978 88.2281 185.175 82.73C182.404 77.2319 181.018 70.904 181.018 63.7471C181.018 56.4973 182.419 50.139 185.222 44.6714C188.055 39.1732 192.075 34.8881 197.28 31.8164C202.485 28.714 208.676 27.1628 215.852 27.1628C222.042 27.1628 227.464 28.284 232.114 30.5263C236.765 32.7686 240.445 35.9172 243.156 39.9718C245.866 44.0265 247.36 48.7876 247.637 54.2553H229.065C228.541 50.7229 227.155 47.8814 224.907 45.7314C222.69 43.5503 219.779 42.4598 216.175 42.4598C213.126 42.4598 210.462 43.2895 208.182 44.9477C205.934 46.5761 204.179 48.9563 202.916 52.0898C201.654 55.2226 201.022 59.0164 201.022 63.4707C201.022 67.986 201.638 71.8253 202.87 74.9892C204.133 78.1531 205.904 80.5645 208.182 82.2233C210.462 83.8822 213.126 84.7113 216.175 84.7113C218.424 84.7113 220.441 84.2507 222.227 83.3288C224.045 82.4076 225.538 81.0712 226.708 79.3202C227.91 77.5387 228.695 75.4037 229.065 72.9158H247.637C247.329 78.3224 245.851 83.0836 243.202 87.1992C240.584 91.285 236.965 94.4794 232.345 96.7831C227.725 99.0868 222.258 100.239 215.944 100.239ZM301.586 60.6136V69.8751C296.289 69.8751 292.593 70.9345 290.498 73.054C288.435 75.1734 287.403 78.5988 287.403 83.3288V93.5576C287.403 99.2406 286.602 103.786 285 107.196C283.43 110.636 281.212 113.232 278.348 114.983C275.514 116.734 272.141 117.901 268.23 118.485C264.349 119.068 260.068 119.36 255.387 119.36V104.662C259.021 104.662 261.778 104.186 263.657 103.234C265.566 102.312 266.86 100.868 267.537 98.9026C268.214 96.9674 268.553 94.5255 268.553 91.5763V78.1226C268.553 75.7573 268.985 73.5302 269.847 71.4412C270.71 69.3217 272.311 67.4637 274.652 65.8665C276.993 64.2382 280.334 62.9634 284.677 62.0422C289.02 61.0898 294.656 60.6136 301.586 60.6136ZM255.387 2.74268C260.068 2.74268 264.349 3.03448 268.23 3.61809C272.141 4.2017 275.514 5.36899 278.348 7.11989C281.212 8.87073 283.43 11.4664 285 14.9067C286.602 18.3163 287.403 22.8624 287.403 28.545V38.7276C287.403 43.4582 288.435 46.8829 290.498 49.0024C292.593 51.1218 296.289 52.1819 301.586 52.1819V61.4434C294.656 61.4434 289.02 60.9821 284.677 60.0609C280.334 59.1085 276.993 57.8338 274.652 56.2365C272.311 54.6088 270.71 52.7502 269.847 50.6612C268.985 48.5418 268.553 46.3146 268.553 43.9804V30.5263C268.553 27.5467 268.214 25.0894 267.537 23.1542C266.86 21.1883 265.566 19.7446 263.657 18.8231C261.778 17.8708 259.021 17.3947 255.387 17.3947V2.74268ZM301.586 52.1819V69.8751H285V52.1819H301.586Z" fill="white"/>
</svg>
