<svg width="402" height="181" viewBox="0 0 402 181" fill="none" xmlns="http://www.w3.org/2000/svg">
<path d="M50.4023 88.4434V79.1819C55.7307 79.1819 59.4266 78.1218 61.4901 76.0024C63.5537 73.8829 64.5855 70.4582 64.5855 65.7276V55.545C64.5855 49.8624 65.3709 45.3163 66.9418 41.9067C68.5433 38.4664 70.7608 35.8707 73.5943 34.1199C76.4584 32.369 79.8468 31.2017 83.7581 30.6181C87.6695 30.0345 91.951 29.7427 96.6013 29.7427V44.3947C92.967 44.3947 90.1953 44.8708 88.2855 45.8231C86.4069 46.7446 85.1287 48.1883 84.4509 50.1542C83.7737 52.0894 83.4348 54.5467 83.4348 57.5263V70.9804C83.4348 73.3146 83.0036 75.5418 82.141 77.6612C81.2791 79.7502 79.677 81.6088 77.3365 83.2365C74.9954 84.8338 71.6539 86.1085 67.3113 87.0609C62.9685 87.9821 57.3322 88.4434 50.4023 88.4434ZM96.6013 146.36C91.951 146.36 87.6695 146.068 83.7581 145.485C79.8468 144.901 76.4584 143.734 73.5943 141.983C70.7608 140.232 68.5433 137.636 66.9418 134.196C65.3709 130.786 64.5855 126.241 64.5855 120.558V110.329C64.5855 105.599 63.5537 102.173 61.4901 100.054C59.4266 97.9345 55.7307 96.8751 50.4023 96.8751V87.6136C57.3322 87.6136 62.9685 88.0898 67.3113 89.0422C71.6539 89.9634 74.9954 91.2382 77.3365 92.8665C79.677 94.4637 81.2791 96.3217 82.141 98.4412C83.0036 100.53 83.4348 102.757 83.4348 105.123V118.576C83.4348 121.526 83.7737 123.967 84.4509 125.903C85.1287 127.868 86.4069 129.312 88.2855 130.234C90.1953 131.186 92.967 131.662 96.6013 131.662V146.36ZM50.4023 96.8751V79.1819H66.988V96.8751H50.4023ZM138.897 127.239C131.628 127.239 125.376 125.703 120.14 122.631C114.935 119.529 110.931 115.228 108.129 109.73C105.356 104.232 103.971 97.904 103.971 90.7471C103.971 83.4973 105.372 77.139 108.175 71.6714C111.008 66.1732 115.028 61.8881 120.233 58.8164C125.437 55.714 131.628 54.1628 138.805 54.1628C144.995 54.1628 150.416 55.284 155.067 57.5263C159.717 59.7686 163.398 62.9172 166.108 66.9718C168.819 71.0265 170.312 75.7876 170.589 81.2553H152.017C151.494 77.7229 150.108 74.8814 147.86 72.7314C145.642 70.5503 142.732 69.4598 139.128 69.4598C136.079 69.4598 133.415 70.2895 131.136 71.9477C128.887 73.5761 127.132 75.9563 125.869 79.0898C124.606 82.2226 123.974 86.0164 123.974 90.4707C123.974 94.986 124.59 98.8253 125.822 101.989C127.086 105.153 128.856 107.564 131.136 109.223C133.415 110.882 136.079 111.711 139.128 111.711C141.376 111.711 143.394 111.251 145.18 110.329C146.997 109.408 148.491 108.071 149.661 106.32C150.863 104.539 151.648 102.404 152.017 99.9158H170.589C170.282 105.322 168.803 110.084 166.154 114.199C163.536 118.285 159.918 121.479 155.298 123.783C150.677 126.087 145.211 127.239 138.897 127.239Z" fill="white"/>
<path d="M224.4 27.0703L193.908 140.048H176.953L207.445 27.0703H224.4Z" fill="white"/>
<path d="M265.944 127.239C258.676 127.239 252.423 125.703 247.187 122.631C241.982 119.529 237.978 115.228 235.175 109.73C232.404 104.232 231.018 97.904 231.018 90.7471C231.018 83.4973 232.419 77.139 235.222 71.6714C238.055 66.1732 242.075 61.8881 247.28 58.8164C252.485 55.714 258.676 54.1628 265.852 54.1628C272.042 54.1628 277.464 55.284 282.114 57.5263C286.765 59.7686 290.445 62.9172 293.156 66.9718C295.866 71.0265 297.36 75.7876 297.637 81.2553H279.065C278.541 77.7229 277.155 74.8814 274.907 72.7314C272.69 70.5503 269.779 69.4598 266.175 69.4598C263.126 69.4598 260.462 70.2895 258.182 71.9477C255.934 73.5761 254.179 75.9563 252.916 79.0898C251.654 82.2226 251.022 86.0164 251.022 90.4707C251.022 94.986 251.638 98.8253 252.87 101.989C254.133 105.153 255.904 107.564 258.182 109.223C260.462 110.882 263.126 111.711 266.175 111.711C268.424 111.711 270.441 111.251 272.227 110.329C274.045 109.408 275.538 108.071 276.708 106.32C277.91 104.539 278.695 102.404 279.065 99.9158H297.637C297.329 105.322 295.851 110.084 293.202 114.199C290.584 118.285 286.965 121.479 282.345 123.783C277.725 126.087 272.258 127.239 265.944 127.239ZM351.586 87.6136V96.8751C346.289 96.8751 342.593 97.9345 340.498 100.054C338.435 102.173 337.403 105.599 337.403 110.329V120.558C337.403 126.241 336.602 130.786 335 134.196C333.43 137.636 331.212 140.232 328.348 141.983C325.514 143.734 322.141 144.901 318.23 145.485C314.349 146.068 310.068 146.36 305.387 146.36V131.662C309.021 131.662 311.778 131.186 313.657 130.234C315.566 129.312 316.86 127.868 317.537 125.903C318.214 123.967 318.553 121.526 318.553 118.576V105.123C318.553 102.757 318.985 100.53 319.847 98.4412C320.71 96.3217 322.311 94.4637 324.652 92.8665C326.993 91.2382 330.334 89.9634 334.677 89.0422C339.02 88.0898 344.656 87.6136 351.586 87.6136ZM305.387 29.7427C310.068 29.7427 314.349 30.0345 318.23 30.6181C322.141 31.2017 325.514 32.369 328.348 34.1199C331.212 35.8707 333.43 38.4664 335 41.9067C336.602 45.3163 337.403 49.8624 337.403 55.545V65.7276C337.403 70.4582 338.435 73.8829 340.498 76.0024C342.593 78.1218 346.289 79.1819 351.586 79.1819V88.4434C344.656 88.4434 339.02 87.9821 334.677 87.0609C330.334 86.1085 326.993 84.8338 324.652 83.2365C322.311 81.6088 320.71 79.7502 319.847 77.6612C318.985 75.5418 318.553 73.3146 318.553 70.9804V57.5263C318.553 54.5467 318.214 52.0894 317.537 50.1542C316.86 48.1883 315.566 46.7446 313.657 45.8231C311.778 44.8708 309.021 44.3947 305.387 44.3947V29.7427ZM351.586 79.1819V96.8751H335V79.1819H351.586Z" fill="white"/>
</svg>
